<?xml version="1.0" encoding="UTF-8" standalone="no"?>
<svg
   xmlns:dc="http://purl.org/dc/elements/1.1/"
   xmlns:cc="http://creativecommons.org/ns#"
   xmlns:rdf="http://www.w3.org/1999/02/22-rdf-syntax-ns#"
   xmlns:svg="http://www.w3.org/2000/svg"
   xmlns="http://www.w3.org/2000/svg"
   xmlns:sodipodi="http://sodipodi.sourceforge.net/DTD/sodipodi-0.dtd"
   xmlns:inkscape="http://www.inkscape.org/namespaces/inkscape"
   width="16"
   height="16"
   fill="currentColor"
   class="bi bi-triangle"
   viewBox="0 0 16 16"
   version="1.1"
   id="svg886"
   sodipodi:docname="triangle.svg"
   inkscape:version="1.0.2-2 (e86c870879, 2021-01-15)">
  <metadata
     id="metadata892">
    <rdf:RDF>
      <cc:Work
         rdf:about="">
        <dc:format>image/svg+xml</dc:format>
        <dc:type
           rdf:resource="http://purl.org/dc/dcmitype/StillImage" />
      </cc:Work>
    </rdf:RDF>
  </metadata>
  <defs
     id="defs890" />
  <sodipodi:namedview
     pagecolor="#ffffff"
     bordercolor="#666666"
     borderopacity="1"
     objecttolerance="10"
     gridtolerance="10"
     guidetolerance="10"
     inkscape:pageopacity="0"
     inkscape:pageshadow="2"
     inkscape:window-width="1920"
     inkscape:window-height="1017"
     id="namedview888"
     showgrid="false"
     inkscape:zoom="53.125"
     inkscape:cx="8"
     inkscape:cy="8"
     inkscape:window-x="-8"
     inkscape:window-y="-8"
     inkscape:window-maximized="1"
     inkscape:current-layer="svg886" />
  <path
     d="m 7.938,13.982583 a 0.13,-0.13 0 0 0 0.064,0.016 0.13,-0.13 0 0 0 0.063,-0.016 0.146,-0.146 0 0 0 0.054,-0.057 L 14.976,2.2585833 c 0.036,-0.06 0.035,-0.124 0.002,-0.183 a 0.163,-0.163 0 0 0 -0.054,-0.06 0.116,-0.116 0 0 0 -0.066,-0.017 H 1.146 a 0.115,-0.115 0 0 0 -0.066,0.017 0.163,-0.163 0 0 0 -0.054,0.06 0.176,-0.176 0 0 0 0.002,0.183 L 7.884,13.925583 a 0.147,-0.147 0 0 0 0.054,0.057 z m 1.044,0.45 a 1.13,-1.13 0 0 1 -1.96,0 L 0.165,2.7655833 c -0.457,-0.778 0.091,-1.76699997 0.98,-1.76699997 h 13.713 c 0.889,0 1.438,0.98999997 0.98,1.76699997 z"
     id="path884" />
</svg>
