<svg xmlns="http://www.w3.org/2000/svg" width="516.6" height="336.913" viewBox="0 0 136.684 89.142"><path style="stroke-width:3.77953" d="M67.383 0 0 336.912h449.217L516.6 0H67.383zm33.789 41.992h27.93l-5.665 28.125h-27.93l5.665-28.125zm56.055 0h28.125l-5.665 28.125h-28.125l5.665-28.125zm56.25 0h27.93l-5.665 28.125h-27.93l5.665-28.125zm56.054 0h28.125l-5.664 28.125h-28.125l5.664-28.125zm56.248 0h27.93l-5.664 28.125h-27.93l5.664-28.125zm56.055 0h28.125l-5.664 28.125H376.17l5.664-28.125zm56.25 0h27.93l-5.664 28.125h-27.93l5.664-28.125zm-334.178 56.25h126.367c3.907 0 7.357.716 10.352 2.149 3.125 1.432 5.664 3.45 7.617 6.054 2.084 2.474 3.516 5.404 4.297 8.79.912 3.385.977 7.03.195 10.937l-16.797 84.375c-.78 3.906-2.278 7.552-4.492 10.937a40.453 40.453 0 0 1-8.007 8.985 36.482 36.482 0 0 1-9.961 5.86 30.714 30.714 0 0 1-11.329 2.148H75.781c-3.906 0-7.422-.717-10.547-2.149-3.125-1.432-5.729-3.385-7.812-5.86-1.953-2.603-3.32-5.598-4.102-8.984-.65-3.385-.586-7.03.196-10.937l16.797-84.375a33.086 33.086 0 0 1 4.296-10.938c2.084-3.385 4.623-6.315 7.618-8.789 3.125-2.604 6.51-4.622 10.156-6.054 3.776-1.433 7.617-2.149 11.523-2.149zm210.74 0h126.172c3.907 0 7.357.716 10.352 2.149 3.125 1.432 5.664 3.45 7.617 6.054 2.083 2.474 3.516 5.404 4.297 8.79.912 3.385.977 7.03.195 10.937l-16.797 84.375c-.78 3.906-2.278 7.552-4.492 10.937a40.453 40.453 0 0 1-8.008 8.985 36.482 36.482 0 0 1-9.96 5.86 30.714 30.714 0 0 1-11.329 2.148h-126.17c-3.906 0-7.421-.717-10.546-2.149-3.125-1.432-5.73-3.385-7.813-5.86-1.953-2.603-3.32-5.598-4.101-8.984-.782-3.385-.782-7.03 0-10.937l16.794-84.375a33.086 33.086 0 0 1 4.297-10.938c2.214-3.385 4.818-6.315 7.813-8.789 3.125-2.604 6.51-4.622 10.156-6.054 3.776-1.433 7.617-2.149 11.523-2.149zm-191.683 16.692a20 20 0 0 0-19.797 20 20 20 0 0 0 20 20 20 20 0 0 0 20-20 20 20 0 0 0-20-20 20 20 0 0 0-.203 0zm204 0a20 20 0 0 0-19.797 20 20 20 0 0 0 20 20 20 20 0 0 0 20-20 20 20 0 0 0-20-20 20 20 0 0 0-.203 0zm-213.442 8.425a5 5 0 0 1 5 5 5 5 0 0 1-5 5 5 5 0 0 1-5-5 5 5 0 0 1 5-5zm204 0a5 5 0 0 1 5 5 5 5 0 0 1-5 5 5 5 0 0 1-5-5 5 5 0 0 1 5-5zm-127.39 130.694 23.894 7.343a24.96 20.28 17.083 0 0-.529 1.47 24.96 20.28 17.083 0 0 17.9 26.716 24.96 20.28 17.083 0 0 29.817-12.053 24.96 20.28 17.083 0 0 .387-1.511l23.892 7.341a49.919 40.56 17.083 0 1-.422 1.502 49.919 40.56 17.083 0 1-59.63 24.106 49.919 40.56 17.083 0 1-35.803-53.434 49.919 40.56 17.083 0 1 .494-1.48zM56.25 266.602h27.93l-5.664 28.125h-27.93l5.664-28.125zm56.055 0h28.125l-5.664 28.125H106.64l5.664-28.125zm224.607 0h28.125l-5.664 28.125h-28.125l5.664-28.125zm56.25 0h27.93l-5.664 28.125h-27.93l5.664-28.125z" transform="scale(.26458)"/></svg>