<?xml version="1.0" encoding="UTF-8" standalone="no"?>
<svg
   xmlns:dc="http://purl.org/dc/elements/1.1/"
   xmlns:cc="http://creativecommons.org/ns#"
   xmlns:rdf="http://www.w3.org/1999/02/22-rdf-syntax-ns#"
   xmlns:svg="http://www.w3.org/2000/svg"
   xmlns="http://www.w3.org/2000/svg"
   xmlns:sodipodi="http://sodipodi.sourceforge.net/DTD/sodipodi-0.dtd"
   xmlns:inkscape="http://www.inkscape.org/namespaces/inkscape"
   width="1666.875mm"
   height="780.28186mm"
   viewBox="0 0 1666.875 780.28186"
   version="1.1"
   id="svg1438"
   inkscape:version="1.0.2-2 (e86c870879, 2021-01-15)"
   sodipodi:docname="Flixy2.svg">
  <defs
     id="defs1432" />
  <sodipodi:namedview
     id="base"
     pagecolor="#ffffff"
     bordercolor="#666666"
     borderopacity="1.0"
     inkscape:pageopacity="0.0"
     inkscape:pageshadow="2"
     inkscape:zoom="0.175"
     inkscape:cx="2472.4841"
     inkscape:cy="1490.6639"
     inkscape:document-units="mm"
     inkscape:current-layer="svg1438"
     inkscape:document-rotation="0"
     showgrid="true"
     inkscape:window-width="1713"
     inkscape:window-height="1008"
     inkscape:window-x="-26"
     inkscape:window-y="0"
     inkscape:window-maximized="0"
     fit-margin-top="0"
     fit-margin-left="0"
     fit-margin-right="0"
     fit-margin-bottom="0">
    <inkscape:grid
       type="xygrid"
       id="grid2001"
       spacingx="2.6458333"
       spacingy="2.6458333"
       originx="-449.79163"
       originy="-411.69178" />
  </sodipodi:namedview>
  <metadata
     id="metadata1435">
    <rdf:RDF>
      <cc:Work
         rdf:about="">
        <dc:format>image/svg+xml</dc:format>
        <dc:type
           rdf:resource="http://purl.org/dc/dcmitype/StillImage" />
        <dc:title></dc:title>
      </cc:Work>
    </rdf:RDF>
  </metadata>
  <rect
     style="fill:#fff39c;fill-opacity:1;stroke:#ffffff;stroke-width:1.39782;stroke-miterlimit:4;stroke-dasharray:none"
     id="rect898"
     width="1665.9922"
     height="778.05035"
     x="0.88285184"
     y="0.88285184" />
  <rect
     style="fill:#000009;fill-opacity:1;stroke-width:0.89637"
     id="rect28"
     width="1666.875"
     height="12.291884"
     x="0"
     y="117.4749" />
  <g
     transform="translate(-304.95089,-178.65789)"
     id="g73"
     style="fill:#000000">
    <g
       id="g65"
       style="fill:#000000">
      <path
         id="path51"
         style="fill:#000000;stroke-width:3.77953"
         d="M 67.382812,0 0,336.91211 H 449.2168 L 516.59961,0 Z m 33.789068,41.992188 h 27.92968 l -5.66406,28.125 H 95.507812 Z m 56.05468,0 h 28.125 l -5.66406,28.125 h -28.125 z m 56.25,0 h 27.92969 l -5.66406,28.125 H 207.8125 Z m 56.05469,0 h 28.125 l -5.66406,28.125 h -28.125 z m 56.24805,0 h 27.92968 l -5.66406,28.125 h -27.92969 z m 56.05468,0 h 28.125 l -5.66406,28.125 h -28.125 z m 56.25,0 h 27.92969 l -5.66406,28.125 h -27.92969 z m -334.17773,56.25 h 126.36719 c 3.90624,0 7.35679,0.716197 10.35156,2.148432 3.12499,1.43229 5.66405,3.45052 7.61719,6.05469 2.08332,2.47396 3.51562,5.40367 4.29687,8.78907 0.91152,3.38534 0.97652,7.03125 0.19532,10.9375 l -16.79688,84.375 c -0.78125,3.90619 -2.27867,7.5521 -4.49219,10.9375 -2.21354,3.38534 -4.88282,6.3802 -8.00781,8.98437 -2.99477,2.47395 -6.3151,4.42714 -9.96094,5.85937 -3.64581,1.43229 -7.42188,2.14844 -11.32812,2.14844 H 75.78125 c -3.906243,0 -7.421886,-0.71615 -10.546875,-2.14844 -3.124989,-1.43223 -5.729174,-3.38542 -7.8125,-5.85937 -1.953109,-2.60417 -3.320309,-5.59903 -4.101563,-8.98437 -0.65098,-3.3854 -0.585941,-7.03131 0.195313,-10.9375 l 16.796875,-84.375 c 0.781228,-3.90625 2.213549,-7.55216 4.296875,-10.9375 2.083326,-3.3854 4.622396,-6.31511 7.617187,-8.78907 3.124989,-2.60417 6.510448,-4.6224 10.15625,-6.05469 3.776051,-1.432235 7.617218,-2.148435 11.523438,-2.148432 z m 210.74023,0 h 126.17188 c 3.90624,0 7.35679,0.716197 10.35156,2.148432 3.12499,1.43229 5.66406,3.45052 7.61719,6.05469 2.08333,2.47396 3.51565,5.40367 4.29687,8.78907 0.91153,3.38534 0.97657,7.03125 0.19532,10.9375 l -16.79688,84.375 c -0.78125,3.90619 -2.27867,7.5521 -4.49219,10.9375 -2.21354,3.38534 -4.88282,6.3802 -8.00781,8.98437 -2.99477,2.47395 -6.3151,4.42714 -9.96094,5.85937 -3.64583,1.43229 -7.4219,2.14844 -11.32812,2.14844 H 286.52344 c -3.90625,0 -7.42189,-0.71615 -10.54688,-2.14844 -3.12499,-1.43223 -5.72917,-3.38542 -7.8125,-5.85937 -1.95313,-2.60417 -3.32033,-5.59903 -4.10156,-8.98437 -0.78125,-3.3854 -0.78125,-7.03131 0,-10.9375 l 16.79492,-84.375 c 0.78126,-3.90625 2.21355,-7.55216 4.29688,-10.9375 2.21354,-3.3854 4.81773,-6.31511 7.8125,-8.78907 3.12499,-2.60417 6.51041,-4.6224 10.15625,-6.05469 3.77602,-1.432235 7.61719,-2.148435 11.52343,-2.148432 z M 122.96289,114.93359 a 19.999999,19.999999 0 0 0 -19.79687,20 19.999999,19.999999 0 0 0 20,20 19.999999,19.999999 0 0 0 20,-20 19.999999,19.999999 0 0 0 -20,-20 19.999999,19.999999 0 0 0 -0.20313,0 z m 204,0 a 19.999999,19.999999 0 0 0 -19.79687,20 19.999999,19.999999 0 0 0 20,20 19.999999,19.999999 0 0 0 20,-20 19.999999,19.999999 0 0 0 -20,-20 19.999999,19.999999 0 0 0 -0.20313,0 z m -213.44141,8.42579 a 4.9999998,4.9999998 0 0 1 5,5 4.9999998,4.9999998 0 0 1 -5,5 4.9999998,4.9999998 0 0 1 -5,-5 4.9999998,4.9999998 0 0 1 5,-5 z m 204,0 a 4.9999996,4.9999996 0 0 1 5,5 4.9999996,4.9999996 0 0 1 -5,5 4.9999996,4.9999996 0 0 1 -5,-5 4.9999996,4.9999996 0 0 1 5,-5 z m -127.39062,130.69335 23.89453,7.34375 a 24.959466,20.279566 17.083079 0 0 -0.5293,1.46875 24.959466,20.279566 17.083079 0 0 17.90039,26.7168 24.959466,20.279566 17.083079 0 0 29.81641,-12.05273 24.959466,20.279566 17.083079 0 0 0.38672,-1.51172 l 23.89258,7.3418 a 49.918896,40.5591 17.083079 0 1 -0.42188,1.50195 49.918896,40.5591 17.083079 0 1 -59.63086,24.10547 49.918896,40.5591 17.083079 0 1 -35.80273,-53.4336 49.918896,40.5591 17.083079 0 1 0.49414,-1.48047 z M 56.25,266.60156 h 27.929688 l -5.664063,28.125 H 50.585938 Z m 56.05469,0 h 28.125 l -5.66407,28.125 h -28.125 z m 224.60742,0 h 28.125 l -5.66406,28.125 h -28.125 z m 56.25,0 h 27.92969 l -5.66407,28.125 h -27.92968 z"
         transform="matrix(0.26458333,0,0,0.26458333,325.82872,199.13612)" />
    </g>
  </g>
  <text
     xml:space="preserve"
     style="font-size:84.4006px;line-height:1.25;font-family:Limelight;-inkscape-font-specification:Limelight;fill:#000000;stroke-width:0.1688"
     x="175.07324"
     y="94.364914"
     id="text22"><tspan
       sodipodi:role="line"
       id="tspan20"
       x="175.07324"
       y="94.364914"
       style="fill:#000000;stroke-width:0.1688">ViewFinder</tspan></text>
  <rect
     style="fill:#000009;fill-opacity:1;stroke-width:6.44951"
     id="rect28-72"
     width="1666.875"
     height="636.34851"
     x="4.5776367e-05"
     y="143.93333" />
  <rect
     style="fill:#000009;fill-opacity:1;stroke-width:0.89637"
     id="rect882"
     width="1666.875"
     height="12.291884"
     x="0"
     y="0" />
  <rect
     style="fill:#000000;fill-opacity:1;stroke:#fff39c;stroke-width:2.64583;stroke-miterlimit:4;stroke-dasharray:none;stroke-opacity:1"
     id="rect884"
     width="635"
     height="396.875"
     x="26.458366"
     y="170.39156" />
  <text
     xml:space="preserve"
     style="font-size:26.4583px;line-height:1.25;font-family:Limelight;-inkscape-font-specification:Limelight;fill:#fff39c;stroke-width:0.264583;stroke:#fff39c;stroke-opacity:1;fill-opacity:1;"
     x="51.578987"
     y="216.2249"
     id="text888"><tspan
       sodipodi:role="line"
       id="tspan886"
       x="51.578987"
       y="216.2249"
       style="font-size:26.4583px;fill:#fff39c;stroke-width:0.264583;stroke:#fff39c;stroke-opacity:1;fill-opacity:1;">ViewFinder</tspan></text>
  <text
     xml:space="preserve"
     style="font-size:15.875px;line-height:1.25;font-family:Limelight;-inkscape-font-specification:Limelight;stroke-width:0.264583;stroke:#fff39c;stroke-opacity:1;fill:#fff39c;fill-opacity:1;"
     x="60.800468"
     y="248.02864"
     id="text892"><tspan
       sodipodi:role="line"
       id="tspan890"
       x="60.800468"
       y="248.02864"
       style="font-style:normal;font-variant:normal;font-weight:normal;font-stretch:normal;font-size:15.875px;font-family:lexend;-inkscape-font-specification:lexend;fill:#fff39c;stroke-width:0.264583;stroke:#fff39c;stroke-opacity:1;fill-opacity:1;">Welcome to the world of listing films and knowing where</tspan><tspan
       sodipodi:role="line"
       x="60.800468"
       y="268.7265"
       style="font-style:normal;font-variant:normal;font-weight:normal;font-stretch:normal;font-size:15.875px;font-family:lexend;-inkscape-font-specification:lexend;fill:#fff39c;stroke-width:0.264583;stroke:#fff39c;stroke-opacity:1;fill-opacity:1;"
       id="tspan894">you can stream them</tspan><tspan
       sodipodi:role="line"
       x="60.800468"
       y="288.57025"
       style="font-style:normal;font-variant:normal;font-weight:normal;font-stretch:normal;font-size:15.875px;font-family:lexend;-inkscape-font-specification:lexend;fill:#fff39c;stroke-width:0.264583;stroke:#fff39c;stroke-opacity:1;fill-opacity:1;"
       id="tspan896" /></text>
</svg>
